<?xml version="1.0" standalone="no"?>
<!DOCTYPE svg PUBLIC "-//W3C//DTD SVG 20010904//EN"
 "http://www.w3.org/TR/2001/REC-SVG-20010904/DTD/svg10.dtd">
<svg version="1.0" xmlns="http://www.w3.org/2000/svg"
 width="500.000000pt" height="500.000000pt" viewBox="0 0 500.000000 500.000000"
 preserveAspectRatio="xMidYMid meet">

<g transform="translate(0.000000,500.000000) scale(0.100000,-0.100000)"
fill="#000000" stroke="none">
<path d="M3365 4204 c-16 -2 -66 -9 -110 -14 -216 -28 -421 -89 -590 -175
-519 -264 -852 -720 -931 -1275 -17 -120 -19 -377 -4 -495 64 -510 328 -942
745 -1221 296 -197 630 -294 1017 -294 448 0 951 212 1310 552 l78 73 -258
277 -257 276 -50 -47 c-170 -161 -396 -282 -608 -327 -143 -30 -346 -15 -485
36 -290 107 -507 362 -579 680 -24 107 -28 311 -9 425 64 372 320 665 661 756
102 27 274 36 369 19 212 -37 416 -149 595 -327 l105 -104 22 23 c40 41 484
582 484 590 0 4 -45 47 -101 95 -276 241 -613 398 -979 458 -94 15 -367 27
-425 19z"/>
</g>
</svg>
